<svg xmlns="http://www.w3.org/2000/svg" data-name="Layer 1" viewBox="0 0 110 137.5" x="0px" y="0px"><path d="M97.44,44.22h-29v-29a5.56,5.56,0,0,0-5.56-5.56H12.55A5.56,5.56,0,0,0,7,15.19v33a5.56,5.56,0,0,0,5.55,5.56h.74v9.13a2.9,2.9,0,0,0,1.82,2.72,2.94,2.94,0,0,0,3.23-.64L29.54,53.7h12v29a5.56,5.56,0,0,0,5.56,5.56H80.45L91.66,99.5a2.92,2.92,0,0,0,2.07.87,3.14,3.14,0,0,0,1.15-.23,2.91,2.91,0,0,0,1.82-2.73V88.28h.74A5.56,5.56,0,0,0,103,82.72V49.78A5.56,5.56,0,0,0,97.44,44.22ZM41.58,49.78V51.7H29.13a1,1,0,0,0-.71.29l-11.5,11.5a1,1,0,0,1-1.63-.66V52.7a1,1,0,0,0-1-1H12.55A3.56,3.56,0,0,1,9,48.14V15.19a3.56,3.56,0,0,1,3.55-3.56h50.3a3.57,3.57,0,0,1,3.56,3.56v29H47.14A5.56,5.56,0,0,0,41.58,49.78ZM101,82.72a3.57,3.57,0,0,1-3.56,3.56H95.7a1,1,0,0,0-1,1V97.41a.94.94,0,0,1-.59.88.91.91,0,0,1-1-.21L81.57,86.57a1,1,0,0,0-.71-.29H47.14a3.57,3.57,0,0,1-3.56-3.56V49.78a3.57,3.57,0,0,1,3.56-3.56h50.3A3.57,3.57,0,0,1,101,49.78ZM80.66,67.93l-3.78-1.35a1,1,0,0,0-.95.15,5.66,5.66,0,0,1-7.29,0,1,1,0,0,0-1-.15l-3.77,1.35a6,6,0,0,0-4,5.7v3.3a2.41,2.41,0,0,0,2.4,2.41h20a2.41,2.41,0,0,0,2.41-2.41v-3.3A6,6,0,0,0,80.66,67.93Zm2,9a.41.41,0,0,1-.41.41h-20a.4.4,0,0,1-.4-.41v-3.3a4.07,4.07,0,0,1,2.68-3.82l3.28-1.17a7.63,7.63,0,0,0,8.84,0L80,69.81a4.07,4.07,0,0,1,2.68,3.82ZM72.29,67c3.94,0,6.9-5.61,6.9-9.25a6.9,6.9,0,1,0-13.8,0C65.39,61.39,68.35,67,72.29,67Zm0-14.15a4.9,4.9,0,0,1,4.9,4.9c0,3-2.47,7.25-4.9,7.25s-4.9-4.22-4.9-7.25A4.9,4.9,0,0,1,72.29,52.85ZM50.08,40.94V37.63a6.06,6.06,0,0,0-4-5.7L42.3,30.58a1,1,0,0,0-.95.15,5.66,5.66,0,0,1-7.29,0,1,1,0,0,0-1-.15l-3.78,1.35a6,6,0,0,0-4,5.7v3.31a2.4,2.4,0,0,0,2.4,2.4h20A2.41,2.41,0,0,0,50.08,40.94Zm-22.75,0V37.63A4.06,4.06,0,0,1,30,33.81l3.28-1.17a7.63,7.63,0,0,0,8.84,0l3.28,1.17a4.06,4.06,0,0,1,2.68,3.82v3.31a.4.4,0,0,1-.4.4H27.73A.39.39,0,0,1,27.33,40.94ZM37.7,31c3.94,0,6.9-5.61,6.9-9.25a6.9,6.9,0,0,0-13.8,0C30.8,25.39,33.76,31,37.7,31Zm0-14.15a4.9,4.9,0,0,1,4.9,4.9c0,3-2.47,7.25-4.9,7.25s-4.9-4.22-4.9-7.25A4.91,4.91,0,0,1,37.7,16.85Z"/><text x="0" y="125" fill="#000000" font-size="5px" font-weight="bold" font-family="'Helvetica Neue', Helvetica, Arial-Unicode, Arial, Sans-serif">Created by Soremba</text><text x="0" y="130" fill="#000000" font-size="5px" font-weight="bold" font-family="'Helvetica Neue', Helvetica, Arial-Unicode, Arial, Sans-serif">from the Noun Project</text></svg>