<svg xmlns="http://www.w3.org/2000/svg" data-name="Layer 2" viewBox="0 0 32 40" x="0px" y="0px"><title>file format document</title><path d="M27.35,7.65l-6-6A.47.47,0,0,0,21,1.5H6.43A1.94,1.94,0,0,0,4.5,3.43V13a.5.5,0,0,0,1,0V3.43a.93.93,0,0,1,.93-.93H20.5V8a.5.5,0,0,0,.5.5h5.5V28.57a.93.93,0,0,1-.93.93H6.43a.93.93,0,0,1-.93-.93V26a.5.5,0,0,0-1,0v2.57A1.94,1.94,0,0,0,6.43,30.5H25.57a1.94,1.94,0,0,0,1.93-1.93V8A.47.47,0,0,0,27.35,7.65ZM21.5,3.21,25.79,7.5H21.5Z"/><path d="M23.5,22.88V16.12a1.61,1.61,0,0,0-1.62-1.62H4.12A1.61,1.61,0,0,0,2.5,16.12v6.76A1.61,1.61,0,0,0,4.12,24.5H21.88A1.61,1.61,0,0,0,23.5,22.88ZM7.4,20.81a1.76,1.76,0,0,0,1.27.53,1.87,1.87,0,0,0,.78-.15,2.53,2.53,0,0,0,.69-.49l.56.58a2.58,2.58,0,0,1-2,.92,2.68,2.68,0,0,1-2-.76A2.58,2.58,0,0,1,6,19.52a2.62,2.62,0,0,1,.79-1.94,2.75,2.75,0,0,1,2-.78,2.62,2.62,0,0,1,2,.9l-.56.61a2.38,2.38,0,0,0-.71-.5,1.87,1.87,0,0,0-.78-.14,1.83,1.83,0,0,0-1.32.51,1.7,1.7,0,0,0-.54,1.3A1.83,1.83,0,0,0,7.4,20.81Zm7.44,1a2.09,2.09,0,0,1-1.35.42,3.21,3.21,0,0,1-2.18-.84l.56-.67a2.46,2.46,0,0,0,1.64.69,1.11,1.11,0,0,0,.67-.18.57.57,0,0,0,.25-.49.56.56,0,0,0-.23-.47,2.55,2.55,0,0,0-.81-.3,7.62,7.62,0,0,1-.87-.26,1.62,1.62,0,0,1-.53-.3,1.25,1.25,0,0,1-.47-1.07,1.31,1.31,0,0,1,.53-1.12,2.11,2.11,0,0,1,1.3-.39,3.11,3.11,0,0,1,1,.16,2.59,2.59,0,0,1,.85.47l-.47.66a1.73,1.73,0,0,0-.62-.34,2.47,2.47,0,0,0-.78-.14,1.17,1.17,0,0,0-.63.16.51.51,0,0,0-.25.47.54.54,0,0,0,.25.49,3.72,3.72,0,0,0,1.05.36,2.8,2.8,0,0,1,1.2.55,1.28,1.28,0,0,1,.41,1A1.39,1.39,0,0,1,14.84,21.78Zm4.69,0a2.06,2.06,0,0,1-1.35.42A3.2,3.2,0,0,1,16,21.36l.56-.67a2.46,2.46,0,0,0,1.64.69,1.11,1.11,0,0,0,.67-.18.57.57,0,0,0,.25-.49.56.56,0,0,0-.23-.47,2.55,2.55,0,0,0-.81-.3,7,7,0,0,1-.87-.26,1.62,1.62,0,0,1-.53-.3,1.25,1.25,0,0,1-.47-1.07,1.31,1.31,0,0,1,.53-1.12,2.11,2.11,0,0,1,1.3-.39A3.11,3.11,0,0,1,19,17a2.59,2.59,0,0,1,.85.47l-.47.66a1.73,1.73,0,0,0-.62-.34,2.47,2.47,0,0,0-.78-.14,1.17,1.17,0,0,0-.63.16.51.51,0,0,0-.25.47.54.54,0,0,0,.25.49,3.74,3.74,0,0,0,1,.36,2.78,2.78,0,0,1,1.21.55,1.28,1.28,0,0,1,.41,1A1.37,1.37,0,0,1,19.53,21.78Z"/><text x="0" y="47" fill="#000000" font-size="5px" font-weight="bold" font-family="'Helvetica Neue', Helvetica, Arial-Unicode, Arial, Sans-serif">Created by Ilham Fitrotul Hayat</text><text x="0" y="52" fill="#000000" font-size="5px" font-weight="bold" font-family="'Helvetica Neue', Helvetica, Arial-Unicode, Arial, Sans-serif">from the Noun Project</text></svg>