<svg xmlns="http://www.w3.org/2000/svg" xmlns:xlink="http://www.w3.org/1999/xlink" xmlns:serif="http://www.serif.com/" viewBox="0 0 48 60" version="1.1" xml:space="preserve" style="" x="0px" y="0px" fill-rule="evenodd" clip-rule="evenodd" stroke-linejoin="round" stroke-miterlimit="2"><g><path d="M45,30c0,-1.656 -1.344,-3 -3,-3l-22,0c-1.656,0 -3,1.344 -3,3c0,0 0,10 0,10c0,1.656 1.344,3 3,3l22,0c1.656,0 3,-1.344 3,-3l0,-10Zm-8,0l-4,0c-0.552,0 -1,0.448 -1,1l0,4c0,0.552 0.448,1 1,1l3,0c0,-0 0,2 0,2c0,-0 -3,0 -3,0c-0.552,-0 -1,0.448 -1,1c-0,0.552 0.448,1 1,1l4,0c0.552,0 1,-0.448 1,-1l0,-4c0,-0.552 -0.448,-1 -1,-1l-3,-0c0,0 0,-2 0,-2c-0,0 3,0 3,0c0.552,-0 1,-0.448 1,-1c-0,-0.552 -0.448,-1 -1,-1Zm-12,2l3,0c0,-0 0,6 0,6c0,-0 -2,0 -2,0c0,0 0,-1 0,-1c-0,-0.552 -0.448,-1 -1,-1c-0.552,0 -1,0.448 -1,1l0,2c0,0.552 0.448,1 1,1l4,0c0.552,0 1,-0.448 1,-1l0,-8c0,-0.552 -0.448,-1 -1,-1l-4,0c-0.552,-0 -1,0.448 -1,1c-0,0.552 0.448,1 1,1Zm-10,2c-0,0 -7,0 -7,0c-0.552,0 -1,-0.448 -1,-1c-0,-0.552 0.448,-1 1,-1l7,0l0,-2c0,0 -7,0 -7,0c-0.552,-0 -1,-0.448 -1,-1c0,-0.552 0.448,-1 1,-1l7,0c0.136,-0 0.266,0.027 0.384,0.076c0.346,-0.828 0.909,-1.544 1.617,-2.076l-9.001,0c-0.552,0 -1,-0.448 -1,-1c-0,-0.552 0.448,-1 1,-1l20,0c0.552,0 1,0.448 1,1l4,0l0,-12l-30,0l0,21c0,1.656 1.344,3 3,3l9,0l0,-3Zm7,-12l6,0c0.552,0 1,-0.448 1,-1c0,-0.552 -0.448,-1 -1,-1l-6,0c-0.552,0 -1,0.448 -1,1c0,0.552 0.448,1 1,1Zm-11.293,-1.707l-1.293,-1.293c0,0 1.293,-1.293 1.293,-1.293c0.39,-0.39 0.39,-1.024 0,-1.414c-0.39,-0.39 -1.024,-0.39 -1.414,-0l-2,2c-0.391,0.39 -0.391,1.024 -0,1.414l2,2c0.39,0.39 1.024,0.39 1.414,0c0.39,-0.39 0.39,-1.024 0,-1.414Zm6,1.414l2,-2c0.391,-0.39 0.391,-1.024 0,-1.414l-2,-2c-0.39,-0.39 -1.024,-0.39 -1.414,-0c-0.39,0.39 -0.39,1.024 -0,1.414l1.293,1.293c-0,-0 -1.293,1.293 -1.293,1.293c-0.39,0.39 -0.39,1.024 -0,1.414c0.39,0.39 1.024,0.39 1.414,0Zm-4.073,-4.073l-1,1.732c-0.276,0.478 -0.112,1.09 0.366,1.366c0.478,0.276 1.09,0.112 1.366,-0.366l1,-1.732c0.276,-0.478 0.112,-1.09 -0.366,-1.366c-0.478,-0.276 -1.09,-0.112 -1.366,0.366Zm9.366,-0.634l6,0c0.552,0 1,-0.448 1,-1c0,-0.552 -0.448,-1 -1,-1l-6,0c-0.552,0 -1,0.448 -1,1c0,0.552 0.448,1 1,1Zm-1.618,-12l-14.382,-0c-1.656,-0 -3,1.344 -3,3l-0,3l14.382,0l3,-6Zm2.236,-0l-3,6l13.382,0l0,-3c0,-1.656 -1.344,-3 -3,-3l-7.382,-0Zm4.382,2c-0.552,0 -1,0.448 -1,1c-0,0.552 0.448,1 1,1c0.552,0 1,-0.448 1,-1c-0,-0.552 -0.448,-1 -1,-1Zm-3,0c-0.552,0 -1,0.448 -1,1c0,0.552 0.448,1 1,1c0.552,0 1,-0.448 1,-1c0,-0.552 -0.448,-1 -1,-1Zm6,-0c-0.552,-0 -1,0.448 -1,1c0,0.552 0.448,1 1,1c0.552,0 1,-0.448 1,-1c0,-0.552 -0.448,-1 -1,-1Z"/></g><text x="0" y="63" fill="#000000" font-size="5px" font-weight="bold" font-family="'Helvetica Neue', Helvetica, Arial-Unicode, Arial, Sans-serif">Created by Ardiansyah</text><text x="0" y="68" fill="#000000" font-size="5px" font-weight="bold" font-family="'Helvetica Neue', Helvetica, Arial-Unicode, Arial, Sans-serif">from the Noun Project</text></svg>